<svg width="25" height="25" viewBox="0 0 25 25" fill="none" xmlns="http://www.w3.org/2000/svg">
<g clip-path="url(#clip0_1485_1184)">
<path d="M10.0002 18.4402C9.29538 18.4271 8.61879 18.161 8.09395 17.6905C7.54945 17.215 7.18226 16.569 7.05229 15.858L5.28145 6.6847C5.28145 6.6847 5.28145 6.62223 5.28145 6.6014L4.36479 1.89503H0.94812C0.695336 1.89503 0.452905 1.79465 0.274159 1.61598C0.0954134 1.43731 -0.00500488 1.19498 -0.00500488 0.942302C-0.00500488 0.689623 0.0954134 0.447293 0.274159 0.268621C0.452905 0.0899503 0.695336 -0.0104261 0.94812 -0.0104261H5.11479C5.33529 -0.0114877 5.54912 0.0651805 5.71868 0.206102C5.88823 0.347023 6.00267 0.543178 6.04187 0.760086L6.97937 5.50811H24.0523C24.1917 5.50757 24.3296 5.53813 24.4557 5.59757C24.5818 5.65701 24.6931 5.74384 24.7815 5.85171C24.8665 5.96143 24.9287 6.08704 24.9645 6.22115C25.0003 6.35526 25.0089 6.49516 24.9898 6.63264L23.3023 15.8892C23.1745 16.604 22.8072 17.2539 22.2606 17.7322C21.7118 18.2129 21.0002 18.4661 20.271 18.4402H10.0002ZM7.34395 7.40315L8.88562 15.5352C8.94078 15.8226 9.09124 16.083 9.3127 16.2745C9.51805 16.4447 9.77515 16.5401 10.0419 16.5452H20.271C20.4077 16.5515 20.5443 16.5308 20.673 16.4844C20.8017 16.4379 20.9199 16.3666 21.021 16.2745C21.2425 16.083 21.393 15.8226 21.4481 15.5352L22.9169 7.40315H7.34395Z" fill="black"/>
<path d="M9.4375 24.0629C9.65346 24.0645 9.86459 23.999 10.0417 23.8754C10.2222 23.7557 10.3635 23.5855 10.4479 23.3861C10.5291 23.1881 10.5473 22.97 10.5 22.7613C10.4635 22.5482 10.3616 22.3517 10.2083 22.1991C10.0657 22.0286 9.87225 21.9082 9.65625 21.8554C9.44291 21.8133 9.22186 21.835 9.02083 21.9179C8.82311 22.0008 8.65578 22.1426 8.54167 22.324C8.41805 22.501 8.35253 22.7121 8.35417 22.9279C8.35186 23.0717 8.37936 23.2144 8.43493 23.347C8.49051 23.4796 8.57296 23.5992 8.67709 23.6984C8.77142 23.8088 8.8878 23.8982 9.01875 23.961C9.1497 24.0238 9.29234 24.0585 9.4375 24.0629Z" stroke="black" stroke-width="1.8" stroke-linecap="round" stroke-linejoin="round"/>
<path d="M21.375 24.0629C21.5909 24.0645 21.8021 23.999 21.9792 23.8755C22.1553 23.7541 22.2924 23.5842 22.3738 23.3864C22.4552 23.1886 22.4773 22.9715 22.4375 22.7613C22.3962 22.5499 22.2949 22.3547 22.1458 22.1991C21.9976 22.0404 21.8034 21.932 21.5905 21.889C21.3776 21.8461 21.1565 21.8708 20.9583 21.9596C20.7604 22.0465 20.5907 22.1872 20.4687 22.3657C20.3334 22.5766 20.2731 22.827 20.2977 23.0764C20.3223 23.3258 20.4302 23.5596 20.6042 23.7401C20.7034 23.8442 20.8231 23.9266 20.9558 23.9822C21.0884 24.0377 21.2312 24.0652 21.375 24.0629Z" stroke="black" stroke-width="1.8" stroke-linecap="round" stroke-linejoin="round"/>
</g>
<defs>
<clipPath id="clip0_1485_1184">
<rect width="25" height="25" fill="white"/>
</clipPath>
</defs>
</svg>
