<svg width="41" height="40" viewBox="0 0 41 40" fill="none" xmlns="http://www.w3.org/2000/svg">
<rect x="2.33337" y="2" width="36" height="36" rx="18" fill="#E0E2E7"/>
<rect x="2.33337" y="2" width="36" height="36" rx="18" stroke="#F0F1F3" stroke-width="4"/>
<path fill-rule="evenodd" clip-rule="evenodd" d="M24.8334 14.5C24.8334 16.9853 22.8187 19 20.3334 19C17.8481 19 15.8334 16.9853 15.8334 14.5C15.8334 12.0147 17.8481 10 20.3334 10C22.8187 10 24.8334 12.0147 24.8334 14.5ZM22.8334 14.5C22.8334 15.8807 21.7141 17 20.3334 17C18.9527 17 17.8334 15.8807 17.8334 14.5C17.8334 13.1193 18.9527 12 20.3334 12C21.7141 12 22.8334 13.1193 22.8334 14.5Z" fill="#667085"/>
<path fill-rule="evenodd" clip-rule="evenodd" d="M11.3334 26.9231C11.3334 23.0996 14.4329 20 18.2565 20H22.4103C26.2338 20 29.3334 23.0996 29.3334 26.9231C29.3334 28.0701 28.4035 29 27.2565 29H13.4103C12.2632 29 11.3334 28.0701 11.3334 26.9231ZM13.3334 26.9231C13.3334 24.2041 15.5375 22 18.2565 22H22.4103C25.1292 22 27.3334 24.2041 27.3334 26.9231C27.3334 26.9656 27.2989 27 27.2565 27H13.4103C13.3678 27 13.3334 26.9656 13.3334 26.9231Z" fill="#667085"/>
</svg>
