<svg width="89" height="89" viewBox="0 0 89 89" fill="none" xmlns="http://www.w3.org/2000/svg">
<path d="M44.6667 86.3333C67.6785 86.3333 86.3333 67.6785 86.3333 44.6667C86.3333 21.6548 67.6785 3 44.6667 3C21.6548 3 3 21.6548 3 44.6667C3 67.6785 21.6548 86.3333 44.6667 86.3333Z" stroke="black" stroke-width="5" stroke-linecap="round" stroke-linejoin="round"/>
<path d="M59.25 30.0833L30.0833 59.2499" stroke="black" stroke-width="5" stroke-linecap="round" stroke-linejoin="round"/>
<path d="M33.2083 38.4167C36.0848 38.4167 38.4167 36.0848 38.4167 33.2083C38.4167 30.3319 36.0848 28 33.2083 28C30.3319 28 28 30.3319 28 33.2083C28 36.0848 30.3319 38.4167 33.2083 38.4167Z" stroke="black" stroke-width="5" stroke-linecap="round" stroke-linejoin="round"/>
<path d="M56.125 61.3333C59.0015 61.3333 61.3333 59.0014 61.3333 56.125C61.3333 53.2485 59.0015 50.9166 56.125 50.9166C53.2485 50.9166 50.9167 53.2485 50.9167 56.125C50.9167 59.0014 53.2485 61.3333 56.125 61.3333Z" stroke="black" stroke-width="5" stroke-linecap="round" stroke-linejoin="round"/>
</svg>
