<svg width="17" height="17" viewBox="0 0 17 17" fill="none" xmlns="http://www.w3.org/2000/svg">
<path fill-rule="evenodd" clip-rule="evenodd" d="M15.3047 5.81991C16.281 4.8436 16.281 3.26069 15.3047 2.28438L14.7155 1.69512C13.7391 0.718813 12.1562 0.718813 11.1799 1.69512L1.69097 11.1841C1.34624 11.5288 1.10982 11.9668 1.01082 12.4442L0.341106 15.6735C0.219324 16.2607 0.739063 16.7805 1.32629 16.6587L4.55565 15.989C5.03302 15.89 5.47103 15.6536 5.81577 15.3089L15.3047 5.81991ZM14.1262 3.46289L13.5369 2.87363C13.2115 2.5482 12.6839 2.5482 12.3584 2.87363L11.4745 3.75755L13.2423 5.52531L14.1262 4.6414C14.4516 4.31596 14.4516 3.78833 14.1262 3.46289ZM12.0638 6.70382L10.296 4.93606L2.86948 12.3626C2.75457 12.4775 2.67577 12.6235 2.64277 12.7826L2.23082 14.769L4.21721 14.3571C4.37634 14.3241 4.52234 14.2453 4.63726 14.1303L12.0638 6.70382Z" fill="#667085"/>
</svg>
