<svg width="18" height="12" viewBox="0 0 18 12" fill="none" xmlns="http://www.w3.org/2000/svg">
<path fill-rule="evenodd" clip-rule="evenodd" d="M8.99998 0.166504C14.1083 0.166504 16.5256 3.59147 17.3766 5.19265C17.6475 5.7025 17.6475 6.29717 17.3766 6.80702C16.5256 8.4082 14.1083 11.8332 8.99998 11.8332C3.89165 11.8332 1.47437 8.4082 0.623405 6.80702C0.35244 6.29717 0.35244 5.7025 0.623405 5.19265C1.47437 3.59147 3.89165 0.166504 8.99998 0.166504ZM4.69693 3.06458C3.31338 3.98129 2.50549 5.20269 2.09514 5.97482C2.09055 5.98345 2.08867 5.98943 2.08784 5.99271C2.08701 5.99605 2.08685 5.99984 2.08685 5.99984C2.08685 5.99984 2.08701 6.00362 2.08784 6.00696C2.08867 6.01025 2.09055 6.01623 2.09513 6.02485C2.50549 6.79698 3.31338 8.01839 4.69693 8.93509C4.12571 8.09931 3.79165 7.08858 3.79165 5.99984C3.79165 4.91109 4.12571 3.90037 4.69693 3.06458ZM13.303 8.93508C14.6866 8.01838 15.4945 6.79698 15.9048 6.02485C15.9094 6.01623 15.9113 6.01025 15.9121 6.00697C15.9127 6.0048 15.913 6.00174 15.913 6.00174L15.9131 5.99984L15.9128 5.99617L15.9121 5.99271C15.9113 5.98942 15.9094 5.98344 15.9048 5.97482C15.4945 5.20269 14.6866 3.9813 13.303 3.06459C13.8743 3.90038 14.2083 4.91109 14.2083 5.99984C14.2083 7.08858 13.8743 8.0993 13.303 8.93508ZM5.45832 5.99984C5.45832 4.04383 7.04397 2.45817 8.99998 2.45817C10.956 2.45817 12.5416 4.04383 12.5416 5.99984C12.5416 7.95585 10.956 9.5415 8.99998 9.5415C7.04397 9.5415 5.45832 7.95585 5.45832 5.99984Z" fill="#667085"/>
</svg>
