<svg width="30" height="29" viewBox="0 0 30 29" fill="none" xmlns="http://www.w3.org/2000/svg">
<path d="M30 14.8379C30 6.99893 23.2842 0.644043 15 0.644043C6.7158 0.644043 0 6.99893 0 14.8379C0 21.4943 4.8432 27.0799 11.3766 28.614V19.1756H8.2836V14.8379H11.3766V12.9689C11.3766 8.13785 13.6872 5.89862 18.6996 5.89862C19.65 5.89862 21.2898 6.07519 21.9606 6.2512V10.1829C21.6066 10.1477 20.9916 10.1301 20.2278 10.1301C17.7684 10.1301 16.818 11.0118 16.818 13.3039V14.8379H21.7176L20.8758 19.1756H16.818V28.9279C24.2442 28.0791 30 22.095 30 14.8379Z" fill="black"/>
</svg>
