<svg width="30" height="29" viewBox="0 0 30 29" fill="none" xmlns="http://www.w3.org/2000/svg">
<path d="M21.1911 28.9279H8.80893C6.47353 28.9253 4.23461 28.0731 2.58323 26.5581C0.931856 25.0432 0.00285676 22.9893 0 20.8468V8.72516C0.00285676 6.58272 0.931856 4.52877 2.58323 3.01384C4.23461 1.4989 6.47353 0.646664 8.80893 0.644043H21.1911C23.5265 0.646664 25.7654 1.4989 27.4168 3.01384C29.0681 4.52877 29.9971 6.58272 30 8.72516V20.8468C29.9971 22.9893 29.0681 25.0432 27.4168 26.5581C25.7654 28.0731 23.5265 28.9253 21.1911 28.9279V28.9279ZM8.80893 2.71879C7.07241 2.7201 5.40735 3.35318 4.17894 4.47916C2.95053 5.60515 2.25907 7.13212 2.25621 8.72516V20.8468C2.25906 22.4403 2.95035 23.9678 4.17861 25.0946C5.40686 26.2214 7.07191 26.8555 8.80893 26.8581H21.1911C22.9276 26.8555 24.5921 26.2212 25.8195 25.0943C27.0469 23.9674 27.737 22.4399 27.7384 20.8468V8.72516C27.737 7.13257 27.0467 5.60559 25.8192 4.47947C24.5916 3.35334 22.9271 2.7201 21.1911 2.71879H8.80893Z" fill="#171717"/>
<path d="M15 22.263C12.8284 22.2604 10.7465 21.4675 9.2114 20.0583C7.67628 18.649 6.81332 16.7387 6.81189 14.7464C6.81444 13.731 7.03774 12.7263 7.4687 11.791C7.89967 10.8558 8.52965 10.0088 9.32177 9.29958C10.0739 8.62041 10.9681 8.0878 11.9504 7.73381C12.9327 7.37981 13.9829 7.21174 15.0378 7.23969C17.5909 7.30901 19.7067 8.09633 21.1587 9.51745C21.8584 10.2288 22.398 11.06 22.7463 11.9634C23.0946 12.8667 23.2448 13.8243 23.1882 14.7811C23.1564 16.768 22.2879 18.6666 20.7647 20.0793C20.0089 20.7749 19.1103 21.326 18.1208 21.7008C17.1313 22.0756 16.0706 22.2667 15 22.263V22.263ZM14.8111 9.76008C13.4746 9.76398 12.1933 10.2495 11.2433 11.1119C10.7148 11.5851 10.2946 12.1503 10.0072 12.7744C9.71992 13.3985 9.57129 14.0689 9.57006 14.7464C9.57183 15.4006 9.71404 16.048 9.98856 16.6517C10.2631 17.2555 10.6645 17.8037 11.17 18.2651C11.6755 18.7266 12.2751 19.0921 12.9345 19.3409C13.594 19.5898 14.3005 19.717 15.0135 19.7154C15.7266 19.7138 16.4324 19.5833 17.0905 19.3315C17.7486 19.0796 18.3462 18.7113 18.8492 18.2476C19.3521 17.7839 19.7506 17.2339 20.0219 16.6289C20.2931 16.0239 20.4318 15.3758 20.43 14.7216V14.7216C20.5174 13.456 20.0556 12.21 19.1454 11.2555C18.2062 10.3345 16.7597 9.82445 14.9569 9.76998L14.8111 9.76008Z" fill="#171717"/>
<path d="M23.3879 8.77495C24.4432 8.77495 25.2987 7.99015 25.2987 7.02206C25.2987 6.05396 24.4432 5.26917 23.3879 5.26917C22.3326 5.26917 21.4772 6.05396 21.4772 7.02206C21.4772 7.99015 22.3326 8.77495 23.3879 8.77495Z" fill="#171717"/>
</svg>
