<svg width="20" height="20" viewBox="0 0 20 20" fill="none" xmlns="http://www.w3.org/2000/svg">
<g clip-path="url(#clip0_133_1521)">
<path d="M17.1834 6.76002C16.3084 3.06402 12.9501 1.40002 10.0001 1.40002C10.0001 1.40002 10.0001 1.40002 9.99175 1.40002C7.05008 1.40002 3.68341 3.05602 2.80841 6.75202C1.83341 10.88 4.46675 14.376 6.85008 16.576C7.73341 17.392 8.86675 17.8 10.0001 17.8C11.1334 17.8 12.2667 17.392 13.1417 16.576C15.5251 14.376 18.1584 10.888 17.1834 6.76002ZM10.0001 10.768C8.55008 10.768 7.37508 9.64002 7.37508 8.24802C7.37508 6.85602 8.55008 5.72802 10.0001 5.72802C11.4501 5.72802 12.6251 6.85602 12.6251 8.24802C12.6251 9.64002 11.4501 10.768 10.0001 10.768Z" fill="#171717"/>
</g>
<defs>
<clipPath id="clip0_133_1521">
<rect width="20" height="19.2" fill="white"/>
</clipPath>
</defs>
</svg>
