<?xml version="1.0" standalone="no"?>
<!DOCTYPE svg PUBLIC "-//W3C//DTD SVG 20010904//EN"
 "http://www.w3.org/TR/2001/REC-SVG-20010904/DTD/svg10.dtd">
<svg version="1.0" xmlns="http://www.w3.org/2000/svg"
 width="150.000000pt" height="150.000000pt" viewBox="0 0 150.000000 150.000000"
 preserveAspectRatio="xMidYMid meet">
<metadata>
Created by potrace 1.10, written by Peter Selinger 2001-2011
</metadata>
<g transform="translate(0.000000,150.000000) scale(0.100000,-0.100000)"
fill="#000000" stroke="none">
<path d="M612 1294 c-71 -19 -167 -67 -220 -111 -76 -62 -157 -185 -178 -269
-6 -23 -4 -24 44 -24 46 0 50 2 55 28 9 44 85 150 138 192 66 52 124 78 215
97 103 21 196 8 291 -41 284 -145 348 -513 129 -739 -223 -231 -599 -177 -750
107 -14 27 -26 55 -26 62 0 10 -15 14 -50 14 -34 0 -50 -4 -50 -13 0 -25 68
-153 109 -205 200 -252 593 -270 826 -37 310 310 159 839 -268 940 -77 18
-195 18 -265 -1z m431 -116 c18 -12 46 -36 62 -52 l30 -29 -30 22 c-73 54
-107 81 -101 81 5 0 22 -10 39 -22z"/>
<path d="M682 937 l-33 -34 56 -52 c30 -29 55 -53 55 -54 0 -1 -128 -1 -285 1
l-285 3 0 -51 0 -51 285 3 c157 2 285 2 285 1 0 -1 -25 -25 -55 -54 l-56 -53
33 -33 34 -33 110 110 110 110 -110 110 c-60 61 -110 110 -111 110 -1 0 -16
-15 -33 -33z m124 -109 c35 -34 64 -69 64 -78 0 -15 -51 -68 -109 -115 l-25
-20 22 29 c29 38 28 60 -4 85 l-27 21 27 21 c32 25 32 35 1 82 -14 20 -23 37
-19 37 3 0 35 -28 70 -62z"/>
</g>
</svg>
