<svg width="41" height="40" viewBox="0 0 41 40" fill="none" xmlns="http://www.w3.org/2000/svg">
<rect x="2.33337" y="2" width="36" height="36" rx="18" fill="#E0E2E7"/>
<rect x="2.33337" y="2" width="36" height="36" rx="18" stroke="#F0F1F3" stroke-width="4"/>
<path fill-rule="evenodd" clip-rule="evenodd" d="M10.3334 15C10.3334 13.3431 11.6765 12 13.3334 12H27.3334C28.9902 12 30.3334 13.3431 30.3334 15V25C30.3334 26.6569 28.9902 28 27.3334 28H13.3334C11.6765 28 10.3334 26.6569 10.3334 25V15ZM26.6667 14H14.0001L19.7334 18.3C20.089 18.5667 20.5778 18.5667 20.9334 18.3L26.6667 14ZM12.3334 15.25V25C12.3334 25.5523 12.7811 26 13.3334 26H27.3334C27.8857 26 28.3334 25.5523 28.3334 25V15.25L22.1334 19.9C21.0667 20.7 19.6001 20.7 18.5334 19.9L12.3334 15.25Z" fill="#667085"/>
</svg>
