<svg width="41" height="40" viewBox="0 0 41 40" fill="none" xmlns="http://www.w3.org/2000/svg">
<rect x="2.33337" y="2" width="36" height="36" rx="18" fill="#E0E2E7"/>
<rect x="2.33337" y="2" width="36" height="36" rx="18" stroke="#F0F1F3" stroke-width="4"/>
<path d="M18.8334 25C18.2811 25 17.8334 25.4477 17.8334 26C17.8334 26.5523 18.2811 27 18.8334 27H21.8334C22.3857 27 22.8334 26.5523 22.8334 26C22.8334 25.4477 22.3857 25 21.8334 25H18.8334Z" fill="#667085"/>
<path fill-rule="evenodd" clip-rule="evenodd" d="M13.8334 13C13.8334 11.3431 15.1765 10 16.8334 10H23.8334C25.4902 10 26.8334 11.3431 26.8334 13V27C26.8334 28.6569 25.4902 30 23.8334 30H16.8334C15.1765 30 13.8334 28.6569 13.8334 27V13ZM16.8334 12H23.8334C24.3857 12 24.8334 12.4477 24.8334 13V27C24.8334 27.5523 24.3857 28 23.8334 28H16.8334C16.2811 28 15.8334 27.5523 15.8334 27V13C15.8334 12.4477 16.2811 12 16.8334 12Z" fill="#667085"/>
</svg>
