<svg width="100" height="100" viewBox="0 0 100 100" fill="none" xmlns="http://www.w3.org/2000/svg">
<g opacity="0.7">
<path d="M87.5 50.9167C87.5143 56.4161 86.2295 61.8412 83.75 66.75C80.8101 72.6323 76.2906 77.5799 70.6977 81.0387C65.1048 84.4975 58.6593 86.3308 52.0833 86.3333C46.5839 86.3477 41.1588 85.0628 36.25 82.5833L12.5 90.5L20.4167 71.5C17.9372 66.5912 16.6523 56.4161 16.6667 50.9167C16.6692 44.3407 18.5026 37.8952 21.9613 32.3023C25.4201 26.7094 30.3677 22.1899 36.25 19.25C41.1588 16.7705 46.5839 15.4857 52.0833 15.5H54.1667C62.8515 15.9791 71.0543 19.6448 77.2048 25.7952C83.3552 31.9457 87.0209 40.1485 87.5 48.8333V50.9167Z" stroke="black" stroke-width="5" stroke-linecap="round" stroke-linejoin="round"/>
</g>
</svg>
