<svg width="30" height="28" viewBox="0 0 30 28" fill="none" xmlns="http://www.w3.org/2000/svg">
<rect width="29" height="26" transform="translate(0.400024 1)" fill="white"/>
<path d="M26.3522 10.1453L22.9612 9.65089L19.5702 9.15651L16.5389 3.01046C15.9958 1.91495 14.4221 1.90102 13.8744 3.01046L10.8431 9.15651L4.06112 10.1453C2.84491 10.3217 2.3575 11.821 3.23948 12.6798L8.14611 17.4611L6.9856 24.2152C6.77672 25.4362 8.06256 26.3506 9.1395 25.7796L15.2066 22.5906L21.2737 25.7796C22.3508 26.3459 23.6366 25.4362 23.4277 24.2152L22.2672 17.4611L27.1738 12.6798C28.0558 11.821 27.5683 10.3217 26.3522 10.1453Z" fill="#F7B604" stroke="#F7B604" stroke-width="2.6"/>
</svg>
