<svg width="18" height="20" viewBox="0 0 18 20" fill="none" xmlns="http://www.w3.org/2000/svg">
<path d="M12.9666 10.6975C13.3519 10.3017 13.3433 9.66859 12.9475 9.28339C12.5517 8.89819 11.9186 8.90675 11.5334 9.30253L8.2737 12.6517L6.8755 11.5309C6.44459 11.1854 5.81522 11.2547 5.46979 11.6856C5.12435 12.1166 5.19365 12.7459 5.62457 13.0914L8.08571 15.0643C8.28666 15.2254 8.57711 15.2075 8.75675 15.0229L12.9666 10.6975Z" fill="#667085"/>
<path fill-rule="evenodd" clip-rule="evenodd" d="M5 0C5.55228 0 6 0.447715 6 1H12C12 0.447715 12.4477 0 13 0C13.5523 0 14 0.447715 14 1H15C16.6569 1 18 2.34315 18 4V17C18 18.6569 16.6569 20 15 20H3C1.34315 20 0 18.6569 0 17V4C0 2.34315 1.34315 1 3 1H4C4 0.447715 4.44772 0 5 0ZM16 4V5H2V4C2 3.44772 2.44772 3 3 3H4C4 3.55228 4.44772 4 5 4C5.55228 4 6 3.55228 6 3H12C12 3.55228 12.4477 4 13 4C13.5523 4 14 3.55228 14 3H15C15.5523 3 16 3.44772 16 4ZM2 17V7H16V17C16 17.5523 15.5523 18 15 18H3C2.44772 18 2 17.5523 2 17Z" fill="#667085"/>
</svg>
