<svg width="16" height="18" viewBox="0 0 16 18" fill="none" xmlns="http://www.w3.org/2000/svg">
<path d="M6.33334 7.12484C6.79358 7.12484 7.16667 7.49793 7.16667 7.95817V12.9582C7.16667 13.4184 6.79358 13.7915 6.33334 13.7915C5.8731 13.7915 5.50001 13.4184 5.50001 12.9582V7.95817C5.50001 7.49793 5.8731 7.12484 6.33334 7.12484Z" fill="#667085"/>
<path d="M10.5 7.95817C10.5 7.49793 10.1269 7.12484 9.66667 7.12484C9.20643 7.12484 8.83334 7.49793 8.83334 7.95817V12.9582C8.83334 13.4184 9.20643 13.7915 9.66667 13.7915C10.1269 13.7915 10.5 13.4184 10.5 12.9582V7.95817Z" fill="#667085"/>
<path fill-rule="evenodd" clip-rule="evenodd" d="M13 3.99984V3.1665C13 1.78579 11.8807 0.666504 10.5 0.666504H5.50001C4.11929 0.666504 3.00001 1.78579 3.00001 3.1665V3.99984H1.75001C1.28977 3.99984 0.916672 4.37293 0.916672 4.83317C0.916672 5.29341 1.28977 5.6665 1.75001 5.6665H2.16667V14.8332C2.16667 16.2139 3.28596 17.3332 4.66667 17.3332H11.3333C12.7141 17.3332 13.8333 16.2139 13.8333 14.8332V5.6665H14.25C14.7102 5.6665 15.0833 5.29341 15.0833 4.83317C15.0833 4.37293 14.7102 3.99984 14.25 3.99984H13ZM10.5 2.33317H5.50001C5.03977 2.33317 4.66667 2.70627 4.66667 3.1665V3.99984H11.3333V3.1665C11.3333 2.70627 10.9602 2.33317 10.5 2.33317ZM12.1667 5.6665H3.83334V14.8332C3.83334 15.2934 4.20643 15.6665 4.66667 15.6665H11.3333C11.7936 15.6665 12.1667 15.2934 12.1667 14.8332V5.6665Z" fill="#667085"/>
</svg>
