<svg width="24" height="24" viewBox="0 0 24 24" fill="none" xmlns="http://www.w3.org/2000/svg">
<g clip-path="url(#clip0_1485_1188)">
<path d="M0.9 24C0.4 24 0 23.6 0 23.1V19.5C0 18.7 0.2 17.9 0.5 17.1C0.8 16.3 1.3 15.7 1.9 15.1C3.1 13.9 4.7 13.3 6.4 13.3H17.5C19.2 13.3 20.8 13.9 22 15.1C22.6 15.7 23.1 16.3 23.4 17.1C23.7 17.9 23.9 18.7 23.9 19.5V23.1C23.9 23.6 23.5 24 23 24C22.5 24 22.1 23.6 22.1 23.1V19.5C22.1 18.9 22 18.4 21.8 17.8C21.6 17.3 21.2 16.8 20.8 16.4C19.9 15.6 18.7 15.1 17.5 15.1H6.5C5.3 15.1 4.1 15.6 3.2 16.4C2.8 16.8 2.4 17.3 2.2 17.8C2 18.3 1.9 18.9 1.9 19.5V23.1C1.8 23.6 1.4 24 0.9 24Z" fill="#010101"/>
<path d="M11.9 12.1C11.1 12.1 10.3 11.9 9.60001 11.6C8.90001 11.3 8.20001 10.9 7.60001 10.3C7.00001 9.70002 6.60001 9.10003 6.30001 8.30002C5.90001 7.60003 5.70001 6.80002 5.70001 6.00002C5.70001 4.80002 6.10001 3.60002 6.70001 2.60002C7.40001 1.60002 8.30001 0.800024 9.50001 0.400024C10.6 -0.0999756 11.8 -0.199976 13 0.100024C14.2 0.300024 15.3 0.900024 16.1 1.70002C17 2.50002 17.6 3.60002 17.8 4.80002C18.1 6.00002 18 7.20003 17.6 8.30002C17.1 9.40003 16.3 10.3 15.3 11C14.3 11.7 13.1 12.1 11.9 12.1ZM11.9 1.80002C11.3 1.80002 10.8 1.90002 10.2 2.10002C9.40001 2.40002 8.70001 3.00002 8.30001 3.70002C7.80001 4.40002 7.50001 5.20002 7.50001 6.00002C7.50001 6.60002 7.60001 7.10002 7.80001 7.60002C8.00001 8.10002 8.30001 8.60003 8.70001 9.00002C9.10001 9.40002 9.60001 9.70002 10.1 9.90002C11.4 10.4 13 10.3 14.2 9.50002C14.9 9.00002 15.5 8.40002 15.8 7.60002C16.1 6.80002 16.2 6.00002 16 5.20002C16 4.40002 15.6 3.60002 15 3.00002C14.4 2.40002 13.6 2.00002 12.8 1.80002C12.4 1.80002 12.2 1.80002 11.9 1.80002Z" fill="#010101"/>
</g>
<defs>
<clipPath id="clip0_1485_1188">
<rect width="24" height="24" fill="white"/>
</clipPath>
</defs>
</svg>
