<svg width="100" height="69" viewBox="0 0 100 69" fill="none" xmlns="http://www.w3.org/2000/svg">
<g opacity="0.7">
<path d="M0 0V6.25H59.375V53.125H40.1367C38.7451 47.7539 33.9111 43.75 28.125 43.75C22.3389 43.75 17.5049 47.7539 16.1133 53.125H12.5V37.5H6.25V59.375H16.1133C17.5049 64.7461 22.3389 68.75 28.125 68.75C33.9111 68.75 38.7451 64.7461 40.1367 59.375H66.1133C67.5049 64.7461 72.3389 68.75 78.125 68.75C83.9111 68.75 88.7451 64.7461 90.1367 59.375H100V33.8867L99.8047 33.3984L93.5547 14.6484L92.8711 12.5H65.625V0H0ZM3.125 12.5V18.75H31.25V12.5H3.125ZM65.625 18.75H88.3789L93.75 34.7656V53.125H90.1367C88.7451 47.7539 83.9111 43.75 78.125 43.75C72.3389 43.75 67.5049 47.7539 66.1133 53.125H65.625V18.75ZM6.25 25V31.25H25V25H6.25ZM28.125 50C31.6162 50 34.375 52.7588 34.375 56.25C34.375 59.7412 31.6162 62.5 28.125 62.5C24.6338 62.5 21.875 59.7412 21.875 56.25C21.875 52.7588 24.6338 50 28.125 50ZM78.125 50C81.6162 50 84.375 52.7588 84.375 56.25C84.375 59.7412 81.6162 62.5 78.125 62.5C74.6338 62.5 71.875 59.7412 71.875 56.25C71.875 52.7588 74.6338 50 78.125 50Z" fill="#35220B"/>
</g>
</svg>
